<svg width="102" height="102" viewBox="0 0 102 102" fill="none" xmlns="http://www.w3.org/2000/svg">
<path fill-rule="evenodd" clip-rule="evenodd" d="M39.1605 38.5532C42.0044 35.4279 46.0312 33.848 50.662 33.848C55.2268 33.848 59.2393 35.4366 62.0893 38.5448C64.9138 41.6252 66.323 45.8966 66.323 50.787V81.308C66.323 89.2733 72.7789 95.729 80.743 95.729C82.3998 95.729 83.743 97.0722 83.743 98.729C83.743 100.386 82.3998 101.729 80.743 101.729C69.465 101.729 60.323 92.5868 60.323 81.308V50.787C60.323 47.0235 59.2492 44.3254 57.6669 42.5998C56.1101 40.9019 53.7921 39.848 50.662 39.848C47.4377 39.848 45.1276 40.9106 43.5982 42.5913C42.0376 44.3063 40.988 47.0005 40.988 50.787V81.308C40.988 92.5857 31.8461 101.729 20.568 101.729H20.421C9.14301 101.729 0.000976562 92.5868 0.000976562 81.308V56.63C0.000976562 54.9732 1.34412 53.63 3.00098 53.63C4.65783 53.63 6.00098 54.9732 6.00098 56.63V81.308C6.00098 89.2733 12.4569 95.729 20.421 95.729H20.568C28.5319 95.729 34.988 89.2724 34.988 81.308V50.787C34.988 45.9195 36.3478 41.6442 39.1605 38.5532Z" fill="white"/>
<path fill-rule="evenodd" clip-rule="evenodd" d="M83.3744 22.6706C72.2429 10.2432 54.801 6.26039 37.6016 14.3252C36.1015 15.0286 34.3152 14.3827 33.6118 12.8826C32.9084 11.3825 33.5542 9.59617 35.0543 8.89276C54.5749 -0.260431 74.8891 4.20474 87.8436 18.6674C96.6482 28.4967 101.163 42.9518 101.163 55.886V81.308C101.163 82.9648 99.8198 84.308 98.163 84.308C96.5061 84.308 95.163 82.9648 95.163 81.308V55.886C95.163 44.1361 91.0138 31.1992 83.3744 22.6706L85.609 20.669L83.3744 22.6706Z" fill="white"/>
<path fill-rule="evenodd" clip-rule="evenodd" d="M20.672 6C12.2908 6 6 12.1078 6 19.052V42.314C6 43.9709 4.65685 45.314 3 45.314C1.34315 45.314 0 43.9709 0 42.314V19.052C0 8.26416 9.53318 0 20.672 0C31.811 0 41.344 8.26527 41.344 19.052V20.05C41.344 21.7069 40.0009 23.05 38.344 23.05C36.6871 23.05 35.344 21.7069 35.344 20.05V19.052C35.344 12.1087 29.053 6 20.672 6Z" fill="white"/>
</svg>
